<?xml version="1.0" standalone="no"?><svg xmlns="http://www.w3.org/2000/svg" viewBox="0 0 1440 320"><path fill="#f3f4f5" fill-opacity="0.1" d="M0,288L12,245.3C24,203,48,117,72,117.3C96,117,120,203,144,213.3C168,224,192,160,216,117.3C240,75,264,53,288,48C312,43,336,53,360,101.3C384,149,408,235,432,261.3C456,288,480,256,504,229.3C528,203,552,181,576,170.7C600,160,624,160,648,176C672,192,696,224,720,202.7C744,181,768,107,792,96C816,85,840,139,864,165.3C888,192,912,192,936,160C960,128,984,64,1008,69.3C1032,75,1056,149,1080,197.3C1104,245,1128,267,1152,256C1176,245,1200,203,1224,202.7C1248,203,1272,245,1296,250.7C1320,256,1344,224,1368,202.7C1392,181,1416,171,1428,165.3L1440,160L1440,320L1428,320C1416,320,1392,320,1368,320C1344,320,1320,320,1296,320C1272,320,1248,320,1224,320C1200,320,1176,320,1152,320C1128,320,1104,320,1080,320C1056,320,1032,320,1008,320C984,320,960,320,936,320C912,320,888,320,864,320C840,320,816,320,792,320C768,320,744,320,720,320C696,320,672,320,648,320C624,320,600,320,576,320C552,320,528,320,504,320C480,320,456,320,432,320C408,320,384,320,360,320C336,320,312,320,288,320C264,320,240,320,216,320C192,320,168,320,144,320C120,320,96,320,72,320C48,320,24,320,12,320L0,320Z"></path></svg>