<?xml version="1.0" standalone="no"?><svg xmlns="http://www.w3.org/2000/svg" viewBox="0 0 1440 320"><path fill="#f3f4f5" fill-opacity="0.05" d="M0,160L12,138.7C24,117,48,75,72,53.3C96,32,120,32,144,42.7C168,53,192,75,216,96C240,117,264,139,288,165.3C312,192,336,224,360,250.7C384,277,408,299,432,304C456,309,480,299,504,266.7C528,235,552,181,576,149.3C600,117,624,107,648,106.7C672,107,696,117,720,149.3C744,181,768,235,792,224C816,213,840,139,864,138.7C888,139,912,213,936,240C960,267,984,245,1008,213.3C1032,181,1056,139,1080,106.7C1104,75,1128,53,1152,85.3C1176,117,1200,203,1224,240C1248,277,1272,267,1296,218.7C1320,171,1344,85,1368,80C1392,75,1416,149,1428,186.7L1440,224L1440,320L1428,320C1416,320,1392,320,1368,320C1344,320,1320,320,1296,320C1272,320,1248,320,1224,320C1200,320,1176,320,1152,320C1128,320,1104,320,1080,320C1056,320,1032,320,1008,320C984,320,960,320,936,320C912,320,888,320,864,320C840,320,816,320,792,320C768,320,744,320,720,320C696,320,672,320,648,320C624,320,600,320,576,320C552,320,528,320,504,320C480,320,456,320,432,320C408,320,384,320,360,320C336,320,312,320,288,320C264,320,240,320,216,320C192,320,168,320,144,320C120,320,96,320,72,320C48,320,24,320,12,320L0,320Z"></path></svg>