<?xml version="1.0" standalone="no"?><svg xmlns="http://www.w3.org/2000/svg" viewBox="0 0 1440 320"><path fill="#f3f4f5" fill-opacity="0.15" d="M0,96L12,96C24,96,48,96,72,117.3C96,139,120,181,144,208C168,235,192,245,216,224C240,203,264,149,288,112C312,75,336,53,360,69.3C384,85,408,139,432,154.7C456,171,480,149,504,128C528,107,552,85,576,101.3C600,117,624,171,648,192C672,213,696,203,720,202.7C744,203,768,213,792,181.3C816,149,840,75,864,69.3C888,64,912,128,936,181.3C960,235,984,277,1008,282.7C1032,288,1056,256,1080,250.7C1104,245,1128,267,1152,272C1176,277,1200,267,1224,218.7C1248,171,1272,85,1296,74.7C1320,64,1344,128,1368,138.7C1392,149,1416,107,1428,85.3L1440,64L1440,320L1428,320C1416,320,1392,320,1368,320C1344,320,1320,320,1296,320C1272,320,1248,320,1224,320C1200,320,1176,320,1152,320C1128,320,1104,320,1080,320C1056,320,1032,320,1008,320C984,320,960,320,936,320C912,320,888,320,864,320C840,320,816,320,792,320C768,320,744,320,720,320C696,320,672,320,648,320C624,320,600,320,576,320C552,320,528,320,504,320C480,320,456,320,432,320C408,320,384,320,360,320C336,320,312,320,288,320C264,320,240,320,216,320C192,320,168,320,144,320C120,320,96,320,72,320C48,320,24,320,12,320L0,320Z"></path></svg>